<svg preserveAspectRatio="none" overflow="visible" style="display: block;" width="124.95" height="27.1912" viewBox="0 0 124.95 27.1912" fill="none" xmlns="http://www.w3.org/2000/svg">
<g id="Layer_1" clip-path="url(#clip0_0_37)">
<g id="Vector">
<path d="M3.2208 17.4157C3.04794 17.3072 2.91915 17.3987 2.8717 17.4529C2.82764 17.497 2.76663 17.6326 2.8717 17.7919C3.54278 18.8493 4.67819 21.9709 1.91931 26.5227L6.4474 26.5227C7.1117 23.4825 6.74904 19.5814 3.21741 17.4157" fill="#F28B00"/>
<path d="M13.1179 19.0191C12.857 18.9614 12.6672 19.1885 12.8841 19.4021C12.8841 19.4021 15.0126 21.2797 14.5889 26.5263L18.5205 26.5263C18.5205 26.5263 18.429 20.2121 13.1179 19.0191Z" fill="#F28B00"/>
<path d="M24.0242 11.1332C24.0242 11.1332 25.2884 10.4452 24.4478 9.23179C24.4478 9.23179 25.1867 8.54715 24.5021 7.75406C24.5021 7.75406 24.9732 6.91351 24.2919 6.32717C24.2919 6.32717 25.2579 4.78165 24.1326 4.14447C23.7971 3.95805 23.4785 3.95467 23.2107 4.01906C23.0481 4.06312 22.8922 4.1343 22.7464 4.22242C22.4549 4.40544 22.255 4.6393 22.0652 4.93078C21.8347 5.26971 21.489 5.85606 20.967 6.85251L18.9741 5.05957C18.8318 4.93078 19.0013 4.69353 19.0792 4.57152C19.2148 4.36477 19.408 4.21564 19.6181 4.08346C19.8384 3.9445 20.0824 3.83943 20.3332 3.76487C20.5163 3.70725 20.9433 3.6259 20.9399 3.36832C20.9399 3.19885 20.7433 3.14124 20.6112 3.12429C20.5061 3.11073 20.3942 3.09718 20.2824 3.09379C20.2044 3.0904 20.0858 3.11073 20.035 3.02939C20.0045 2.98533 19.9977 2.91415 20.0079 2.85993C20.0248 2.78536 20.1197 2.75486 20.1875 2.73791C20.1875 2.73791 20.906 2.56845 20.8654 2.39559C20.8654 2.39559 20.8654 2.29053 20.34 1.22968C20.34 1.22968 20.2349 1.02971 19.7876 1.40592C19.713 1.46693 19.6588 1.54149 19.5639 1.56183C19.347 1.6025 19.1639 1.3822 19.0182 1.25001C18.8318 1.07377 18.6386 0.917863 18.4149 0.795849C18.1099 0.633163 17.7709 0.548431 17.4252 0.531484C17.371 0.528095 17.3134 0.528095 17.2558 0.528095C16.9745 0.531484 16.6559 0.578934 16.3915 0.684002C16.283 0.728063 16.1542 0.728063 16.056 0.660277C15.9712 0.606049 15.8967 0.528095 15.8051 0.480645C15.6933 0.426417 15.5713 0.399302 15.4425 0.399302C14.9917 0.399302 14.6325 0.758567 14.6325 1.20934C14.6325 1.23985 14.6325 1.26696 14.6358 1.29407C14.6358 1.31102 14.6392 1.32458 14.6426 1.34152C14.663 1.45337 14.7036 1.56183 14.768 1.65673C14.7782 1.67706 14.7951 1.6974 14.8087 1.71096C14.8324 1.74146 14.8629 1.77196 14.8629 1.81941C14.8629 1.85331 14.8528 1.88381 14.8256 1.90415C14.5409 2.19562 13.9715 2.74808 13.4496 4.35121C13.4496 4.35121 10.9788 2.35492 8.80627 3.12768C8.66392 3.17513 8.52496 3.23953 8.38939 3.31409C8.38939 3.31409 9.46718 3.95128 9.86034 4.59185C9.89084 4.6393 9.88067 4.67658 9.86712 4.7037C9.85356 4.7342 9.83322 4.76132 9.75866 4.77487L5.24413 5.47984C5.20684 5.4934 5.17634 5.47985 5.16617 5.45273C5.15262 5.42223 5.17295 5.3985 5.18651 5.38494L9.15198 2.04989C9.15198 2.04989 9.30449 1.92109 9.42312 1.73129C9.49768 1.62961 9.54174 1.5076 9.54174 1.37542C9.54174 1.07716 9.31805 0.826352 9.02657 0.78907C8.99607 0.782292 8.96218 0.775513 8.92828 0.772124C8.70798 0.74501 8.50462 0.748399 8.50462 0.748399L4.97298 0.748399C4.97298 0.748399 4.89503 0.748399 4.80691 0.772124C4.69506 0.799238 4.61033 0.904306 4.61033 1.02632C4.61033 1.12122 4.67134 1.20256 4.75607 1.27713C4.9357 1.4432 5.08144 1.51777 5.09161 1.78213C5.09839 2.05666 4.94926 2.31425 4.82047 2.54811L3.09871 5.56119C3.07159 5.60525 3.03092 5.68998 2.94958 5.75777C2.86485 5.82555 2.77672 5.83911 2.65471 5.85606C1.98363 5.95096 0.383887 6.17126 0.255094 6.18821C0.0686833 6.21193 0.000897511 6.32717 0.00089751 6.46274C0.000897507 6.57797 0.0686831 6.67287 0.173751 6.71355C0.285598 6.75083 0.373719 6.78811 0.526237 6.84234C0.526237 6.84234 0.949898 8.10654 1.01768 8.28279C1.08208 8.45564 1.37017 8.88947 2.11242 8.64205C2.39035 8.54715 2.7835 8.62171 2.7835 9.14705L2.7835 16.1595C2.7835 16.1595 2.7835 16.2137 2.80723 16.251C2.83095 16.2815 2.87163 16.3052 2.90891 16.312C3.22072 16.3696 4.07143 16.5628 4.86792 17.0373C4.90181 17.0543 4.92214 17.0644 4.95265 17.0441C4.98315 17.0305 4.97976 16.9966 4.97976 16.9763L4.97976 15.0105L8.89778 15.0105L8.891 16.0171C8.891 16.0171 8.891 17.017 7.83015 17.017L5.54238 17.017C5.44409 17.017 5.36953 17.0848 5.36275 17.1627C5.34919 17.2881 5.42376 17.3491 5.55255 17.4271C5.55255 17.4271 10.1925 20.1182 8.97912 26.5205L12.8632 26.5205C12.8632 26.5205 13.1751 22.4805 10.1925 20.1182C10.101 20.047 10.0705 19.9894 10.0671 19.9521C10.0671 19.8674 10.1518 19.847 10.2128 19.8369C10.2433 19.8301 10.2704 19.8199 10.2976 19.8131C10.9619 19.6301 14.019 18.6066 14.0529 15.1969L14.0732 8.77762C14.1071 7.48969 14.2427 7.25583 14.4969 7.25583C14.6596 7.25583 14.7646 7.51342 14.8663 7.8998C15.0629 8.64544 15.351 9.2894 15.9034 9.83508C16.2729 10.1977 16.6355 10.557 17.005 10.9163C17.005 10.9163 18.9674 12.8414 19.1097 12.9973C19.3944 13.3091 20.5705 15.2173 17.5981 16.9424C17.4354 17.0339 17.2422 17.0814 17.1575 17.2644C17.0524 17.4881 17.3032 17.7118 17.4388 17.8575C17.8353 18.2846 18.1302 18.7421 18.4047 19.2437C19.2521 20.7926 20.4519 23.7752 19.8723 26.5239L24.3834 26.5239C24.3834 26.5239 24.8003 20.2334 19.1029 18.0507C19.0182 18.0202 18.9504 17.949 18.9843 17.8541C19.0182 17.7592 19.1165 17.7186 19.1944 17.6643C19.6486 17.3559 21.3229 16.0748 21.0043 14.1564C21.0043 14.1564 23.9835 14.2479 24.0411 11.1332M8.93167 13.5396L4.97298 13.5396L4.97298 12.5228L8.93167 12.5228L8.93167 13.5396ZM8.93167 11.0417L4.97298 11.0417L4.97298 10.0249L8.93167 10.0249L8.93167 11.0417ZM11.4533 17.4813C11.4262 17.4983 11.3957 17.505 11.3652 17.505C11.2804 17.505 11.2093 17.4373 11.2093 17.3491L11.2093 9.63511C11.2093 8.63527 10.5416 8.54715 10.2264 8.54715L4.80352 8.54715C4.40697 8.54715 4.22395 8.3743 4.13922 8.21161C4.11549 8.16416 4.09177 8.10654 4.11888 8.03876C4.146 7.96419 4.19684 7.93708 4.24768 7.91674L9.76883 6.07975C9.82983 6.05602 9.91118 6.03569 9.99252 6.00857C10.0162 5.99841 10.0603 5.97807 10.1044 6.00857C10.162 6.03908 10.1586 6.06619 10.1654 6.10008C10.2162 6.30005 10.3111 6.62881 10.4501 6.87623C11.1347 8.10993 12.5074 8.17433 12.5074 8.17433L12.5074 15.5833C12.5108 16.7458 11.8397 17.2102 11.4499 17.4813M17.2693 1.13478C17.5472 1.13478 17.7777 1.35847 17.7777 1.63978C17.7777 1.92109 17.5472 2.14817 17.2693 2.14817C16.9914 2.14817 16.7609 1.92109 16.7609 1.63978C16.7609 1.35847 16.9914 1.13478 17.2693 1.13478ZM20.4824 12.0144C20.3163 11.8585 16.7542 8.36752 16.6254 8.23195C16.4932 8.09976 15.7272 7.25583 16.4932 6.45596C17.049 5.87639 17.7981 6.20515 18.0997 6.4763C18.3912 6.74744 21.533 9.61139 21.533 9.61139C21.75 7.76084 22.5498 7.3304 22.5498 7.3304C22.5498 7.3304 23.0006 7.00503 23.309 7.43885C23.5531 7.78456 23.1633 8.27262 23.1633 8.27262C23.4107 8.3404 23.4616 8.5946 23.4243 8.82507C23.4005 8.96064 23.3361 9.08944 23.2379 9.18773C23.1667 9.2589 23.1091 9.28602 23.1091 9.28602C23.2141 9.27585 23.2819 9.33008 23.326 9.40464C23.37 9.48598 23.3836 9.59105 23.3836 9.68595C23.3802 9.89609 23.3056 10.1164 23.1599 10.2723C22.9294 10.5197 22.6007 10.6485 22.6007 10.6485C22.638 11.3806 22.4278 11.7432 22.1194 11.9941C21.3738 12.638 20.6281 12.1567 20.4891 12.0212" fill="#F28B00"/>
</g>
<g id="Vector_2">
<path d="M66.0931 10.9331C73.7988 10.9331 75.9484 9.81861 75.9484 8.28741C75.9484 6.7562 73.7988 5.63839 66.0931 5.63839C58.3875 5.63839 56.2379 6.7529 56.2379 8.28741C56.2379 9.82191 58.3842 10.9331 66.0931 10.9331ZM66.0931 7.11668C70.743 7.11668 72.0361 7.60944 72.0361 8.28741C72.0361 8.96537 70.743 9.45813 66.0931 9.45813C61.4433 9.45813 60.1469 8.96537 60.1469 8.28741C60.1469 7.60944 61.4466 7.11668 66.0931 7.11668ZM77.1786 13.5722L77.1786 12.0079L55.011 12.0079L55.011 13.5722L64.3701 13.5722L64.3701 14.819C57.4748 14.991 55.4872 16.2113 55.4872 17.8483C55.4872 19.6143 57.8022 20.8975 66.0964 20.8975C74.3907 20.8975 76.7057 19.611 76.7057 17.8483C76.7057 16.2113 74.7148 14.991 67.8195 14.819L67.8195 13.5722L77.182 13.5722L77.1786 13.5722ZM72.7041 17.8483C72.7041 18.6883 71.2622 19.2968 66.0931 19.2968C60.9241 19.2968 59.4855 18.6883 59.4855 17.8483C59.4855 17.0083 60.9274 16.3965 66.0931 16.3965C71.2589 16.3965 72.7041 17.0116 72.7041 17.8483Z" fill="#54575A"/>
<path d="M118.192 6.0176L118.188 14.7121L121.39 14.712L121.39 12.5492L124.313 12.5492L124.313 10.7766L121.39 10.7766L121.39 9.27844L124.313 9.27844L124.313 7.60833L121.39 7.60834L121.393 6.0176L118.192 6.0176Z" fill="#54575A"/>
<path d="M102.178 17.1131L117.073 17.1131C117.073 17.1131 118.29 17.0768 118.326 18.3632C118.359 19.6497 118.326 20.4864 118.326 20.4864L121.597 20.4864L121.597 17.7713C121.597 17.7713 121.676 15.367 118.998 15.367L102.178 15.367L102.178 17.1131Z" fill="#54575A"/>
<path d="M101.688 9.91981C101.552 12.4167 104.611 14.3381 109.033 14.3381C113.455 14.3381 116.186 12.4795 116.272 10.0323C116.375 7.06245 113.031 5.59739 109.04 5.59739C105.048 5.59739 101.863 6.78134 101.688 9.9165M105.154 9.98926C105.154 8.49113 106.897 7.28403 109.043 7.28403C111.189 7.28403 112.929 8.49444 112.929 9.98926C112.929 11.4841 111.189 12.6945 109.043 12.6945C106.897 12.6945 105.154 11.4808 105.154 9.98926Z" fill="#54575A"/>
<path d="M87.2063 10.8466L87.2063 12.5167L91.3468 12.5167L91.3468 20.4869L94.5283 20.4869L94.5283 6.0777L91.3468 6.0777L91.3601 10.8466L87.2063 10.8466Z" fill="#54575A"/>
<path d="M99.36 6.07725L96.2413 6.07725L96.2413 20.4897L99.36 20.4897L99.36 6.07725Z" fill="#54575A"/>
<path d="M89.6042 7.64149L89.6042 6.07722L78.7105 6.07722L78.7105 7.6415L82.6824 7.64149C82.6824 9.60924 81.806 14.4575 78.1252 17.3182C77.9168 17.4769 77.8077 17.8671 78.0458 18.1747C78.3666 18.5418 78.8362 18.3037 78.9453 18.2607C79.3356 18.1053 81.4025 17.2752 83.8333 13.7994C83.8333 13.7994 83.9722 13.4157 84.6667 13.9019C84.6667 13.9019 86.5815 14.98 86.2342 20.4831L89.3661 20.4831C89.3661 20.4831 89.5778 13.6241 84.703 12.1623C84.703 12.1623 85.5695 9.83082 85.7084 7.63488L89.6075 7.63488L89.6042 7.64149Z" fill="#54575A"/>
<path d="M31.1928 6.05382L31.1928 14.9037C31.1928 14.9037 31.1266 18.0389 38.3759 18.1778C38.3759 18.1778 42.9728 18.1017 44.6495 17.4039L44.6495 20.4795L47.8277 20.4795L47.8277 12.5259L49.5011 12.5259L49.5011 20.4795L52.5899 20.4795L52.5899 6.05382L49.5011 6.05382L49.5011 10.998L47.8277 10.998L47.8277 6.05382L44.6495 6.05382L44.6495 14.1364C44.6495 14.1364 44.6495 16.9277 39.1398 16.4382C39.1398 16.4382 35.5152 16.3688 34.3313 14.7681L34.3313 7.79668L43.0422 7.79668L43.0422 6.05382L31.1895 6.05382L31.1928 6.05382Z" fill="#54575A"/>
</g>
</g>
<defs>
<clipPath id="clip0_0_37">
<rect width="124.95" height="27.1912" fill="white"/>
</clipPath>
</defs>
</svg>
